<svg xmlns="http://www.w3.org/2000/svg" viewBox="0 0 42 36" fill="none">
  <title>TUM.ai</title>
  <!-- TUM.ai mark: two leaning triangles. Extracted from
       client/public/img/logo_purple.svg and re-centered in a square-ish
       viewBox so the favicon reads at 16 / 32 px. -->
  <path fill-rule="evenodd" clip-rule="evenodd"
        d="M1.81022 29.5779L12.8093 3.02379C13.3167 1.79875 14.5121 1 15.8381 1
           C15.8651 1 15.8919 1.00032 15.9187 1.00094C15.9454 1.00032 15.9723 1 15.9993 1
           C17.3252 1 18.5134 2.06662 19.0209 3.29167L30.0271 29.5779
           C30.8994 31.6837 29.3517 34 27.0724 34C25.7864 34 24.6254 33.2297 24.1256 32.0448
           L18.2156 18.0342C17.3585 16.0021 14.4789 16.0021 13.6217 18.0342
           L7.71173 32.0448C7.21191 33.2297 6.05098 34 4.76497 34
           C2.48568 34 0.937977 31.6837 1.81022 29.5779Z"
        fill="url(#g)" />
  <path d="M12.8307 3.0238L1.83168 29.5779C0.959438 31.6837 2.50714 34 4.78643 34
           C6.07245 34 7.23337 33.2297 7.73319 32.0448L17.2817 9.40845L18.888 5.53387
           C19.7829 3.37517 18.1964 1 15.8596 1C14.5336 1 13.3382 1.79875 12.8307 3.0238Z"
        fill="#6220B7" />
  <path d="M29.0638 3.0238L40.0628 29.5779C40.9351 31.6837 39.3874 34 37.1081 34
           C35.8221 34 34.6612 33.2297 34.1613 32.0448L24.6128 9.40845L23.0065 5.53387
           C22.1116 3.37517 23.6981 1 26.035 1C27.361 1 28.5564 1.79875 29.0638 3.0238Z"
        fill="#A450E6" />
  <defs>
    <linearGradient id="g" x1="16.56" y1="10.7" x2="37.2" y2="19.49" gradientUnits="userSpaceOnUse">
      <stop stop-color="#6220B7" />
      <stop offset="1" stop-color="#A450E6" />
    </linearGradient>
  </defs>
</svg>
