<svg width="139" height="35" viewBox="0 0 139 35" fill="none" xmlns="http://www.w3.org/2000/svg">
<path d="M62.3324 12.464V25.976H58.6844V12.464H54.1484V9.224H66.8684V12.464H62.3324Z" fill="white"/>
<path d="M74.0201 9.224V19.496C74.0201 20.68 74.2521 21.568 74.7161 22.16C75.1801 22.736 75.9561 23.024 77.0441 23.024C78.1321 23.024 78.9081 22.736 79.3721 22.16C79.8361 21.568 80.0681 20.68 80.0681 19.496V9.224H83.6201V19.112C83.6201 20.344 83.5001 21.416 83.2601 22.328C83.0361 23.224 82.6601 23.968 82.1321 24.56C81.6041 25.136 80.9241 25.568 80.0921 25.856C79.2601 26.128 78.2441 26.264 77.0441 26.264C75.8441 26.264 74.8281 26.128 73.9961 25.856C73.1641 25.568 72.4841 25.136 71.9561 24.56C71.4281 23.968 71.0441 23.224 70.8041 22.328C70.5801 21.416 70.4681 20.344 70.4681 19.112V9.224H74.0201Z" fill="white"/>
<path d="M100.956 14.984H100.884L99.6601 17.432L96.3961 23.36L93.2041 17.456L91.9321 14.816H91.8601V25.976H88.4281V9.224H92.2921L96.3961 17.072H96.4441L100.5 9.224H104.388V25.976H100.956V14.984Z" fill="white"/>
<path d="M111.164 26.24C110.444 26.24 109.908 26.064 109.556 25.712C109.22 25.344 109.052 24.88 109.052 24.32V23.84C109.052 23.28 109.22 22.824 109.556 22.472C109.908 22.104 110.444 21.92 111.164 21.92C111.884 21.92 112.412 22.104 112.748 22.472C113.1 22.824 113.276 23.28 113.276 23.84V24.32C113.276 24.88 113.1 25.344 112.748 25.712C112.412 26.064 111.884 26.24 111.164 26.24Z" fill="white"/>
<path d="M127.159 25.976C126.519 25.976 125.983 25.776 125.551 25.376C125.135 24.976 124.871 24.44 124.759 23.768H124.615C124.423 24.584 123.999 25.208 123.343 25.64C122.687 26.056 121.879 26.264 120.919 26.264C119.655 26.264 118.687 25.928 118.015 25.256C117.343 24.584 117.007 23.696 117.007 22.592C117.007 21.264 117.487 20.28 118.447 19.64C119.423 18.984 120.743 18.656 122.407 18.656H124.399V17.864C124.399 17.256 124.239 16.776 123.919 16.424C123.599 16.056 123.063 15.872 122.311 15.872C121.607 15.872 121.047 16.024 120.631 16.328C120.215 16.632 119.871 16.976 119.599 17.36L117.487 15.488C117.999 14.736 118.639 14.152 119.407 13.736C120.191 13.304 121.247 13.088 122.575 13.088C124.367 13.088 125.711 13.48 126.607 14.264C127.503 15.048 127.951 16.192 127.951 17.696V23.216H129.127V25.976H127.159ZM122.239 23.792C122.831 23.792 123.335 23.664 123.751 23.408C124.183 23.152 124.399 22.736 124.399 22.16V20.672H122.671C121.279 20.672 120.583 21.144 120.583 22.088V22.448C120.583 22.912 120.727 23.256 121.015 23.48C121.303 23.688 121.711 23.792 122.239 23.792Z" fill="white"/>
<path d="M134.487 12.032C133.767 12.032 133.239 11.872 132.903 11.552C132.583 11.216 132.423 10.792 132.423 10.28V9.752C132.423 9.24 132.583 8.824 132.903 8.504C133.239 8.168 133.767 8 134.487 8C135.207 8 135.727 8.168 136.047 8.504C136.383 8.824 136.551 9.24 136.551 9.752V10.28C136.551 10.792 136.383 11.216 136.047 11.552C135.727 11.872 135.207 12.032 134.487 12.032ZM132.711 13.376H136.263V25.976H132.711V13.376Z" fill="white"/>
<path fill-rule="evenodd" clip-rule="evenodd" d="M1.81022 29.5779L12.8093 3.02379C13.3167 1.79875 14.5121 1 15.8381 1C15.8651 1 15.8919 1.00032 15.9187 1.00094C15.9454 1.00032 15.9723 1 15.9993 1C17.3252 1 18.5134 2.06662 19.0209 3.29167L30.0271 29.5779C30.8994 31.6837 29.3517 34 27.0724 34C25.7864 34 24.6254 33.2297 24.1256 32.0448L18.2156 18.0342C17.3585 16.0021 14.4789 16.0021 13.6217 18.0342L7.71173 32.0448C7.21191 33.2297 6.05098 34 4.76497 34C2.48568 34 0.937977 31.6837 1.81022 29.5779Z" fill="url(#paint0_linear_255_1288)"/>
<path d="M12.8307 3.0238L1.83168 29.5779C0.959438 31.6837 2.50714 34 4.78643 34C6.07245 34 7.23337 33.2297 7.73319 32.0448L17.2817 9.40845L18.888 5.53387C19.7829 3.37517 18.1964 1 15.8596 1C14.5336 1 13.3382 1.79875 12.8307 3.0238Z" fill="white" stroke="white" stroke-width="0.0916667" stroke-linecap="round" stroke-linejoin="round"/>
<path d="M29.0638 3.0238L40.0628 29.5779C40.9351 31.6837 39.3874 34 37.1081 34C35.8221 34 34.6612 33.2297 34.1613 32.0448L24.6128 9.40845L23.0065 5.53387C22.1116 3.37517 23.6981 1 26.035 1C27.361 1 28.5564 1.79875 29.0638 3.0238Z" fill="white"/>
<defs>
<linearGradient id="paint0_linear_255_1288" x1="16.5635" y1="10.6972" x2="37.2043" y2="19.4859" gradientUnits="userSpaceOnUse">
<stop stop-color="#6220B7"/>
<stop offset="0.162555" stop-color="#A450E6"/>
</linearGradient>
</defs>
</svg>
